<!-- icon666.com - MILLIONS vector ICONS FREE --><svg enable-background="new 0 0 512 512" viewBox="0 0 512 512" xmlns="http://www.w3.org/2000/svg"><g id="_x35_2_Bell"><g><path d="m437.022 339.09c-16.416-16.531-25.456-38.467-25.456-61.766v-77.957c0-79.128-59.431-144.51-135.974-154.193v-24.28c0-10.82-8.772-19.592-19.592-19.592s-19.592 8.772-19.592 19.592v24.28c-76.543 9.683-135.974 75.065-135.974 154.193v77.957c0 23.299-9.04 45.235-25.456 61.761-36.468 36.716-10.522 99.233 41.303 99.233h49.87c9.015 41.325 45.845 72.38 89.829 72.38 43.989 0 80.819-31.055 89.834-72.38h49.904c51.833 0 77.77-62.524 41.304-99.228zm-181.042 132.424c-22.173 0-41.12-13.779-48.93-33.196h97.865c-7.81 19.417-26.757 33.196-48.935 33.196zm139.738-72.38c-64.967 0-228.98 0-279.438 0-16.915 0-25.43-20.426-13.503-32.435 23.758-23.921 36.841-55.663 36.841-89.375v-77.957c0-64.172 52.209-116.381 116.381-116.381s116.381 52.209 116.381 116.381v77.957c0 33.712 13.082 65.454 36.841 89.38 11.92 11.995 3.421 32.43-13.503 32.43z"></path><path d="m255.999 102.577c-10.82 0-19.592 8.772-19.592 19.592s8.772 19.592 19.592 19.592c31.766 0 57.605 25.839 57.605 57.6 0 10.82 8.772 19.592 19.592 19.592s19.592-8.772 19.592-19.592c0-53.366-43.417-96.784-96.789-96.784z"></path></g></g></svg>